Coordinates
version=1
nRows=14
nColumns=24
inDegrees=yes

Units are S.I. units (second, meters, Newtons, ...)
Angles are in degrees.

endheader
time	pelvis_tilt	pelvis_list	pelvis_rotation	pelvis_tx	pelvis_ty	pelvis_tz	hip_flexion_r	hip_adduction_r	hip_rotation_r	knee_angle_r	ankle_angle_r	subtalar_angle_r	mtp_angle_r	hip_flexion_l	hip_adduction_l	hip_rotation_l	knee_angle_l	ankle_angle_l	subtalar_angle_l	mtp_angle_l	lumbar_extension	lumbar_bending	lumbar_rotation
      3.47500000	     11.18946439	      9.40647935	     15.61640368	     -1.54695789	      0.73268934	     -0.23726767	     12.54796639	    -12.82580433	    -19.50207665	    -10.30559414	     16.91337779	     11.69902822	      0.00000000	    -23.56451022	      5.17313028	      9.45834827	    -26.31368666	     31.74078037	     13.57526899	      0.00000000	    -34.89983681	     -1.38109929	    -13.74438456
      3.48000000	     11.18454833	      9.09385369	     15.60603363	     -1.53895699	      0.73227906	     -0.23690253	     12.78909723	    -12.33332783	    -18.51137242	    -11.38287502	     16.41464961	     11.01354397	      0.00000000	    -23.07285149	      4.77809250	      9.29728684	    -28.26953562	     30.93021697	     13.72182743	      0.00000000	    -34.62719651	     -1.13402481	    -13.53489919
      3.48500000	     11.22414031	      8.74005857	     15.54220775	     -1.53095985	      0.73196473	     -0.23649395	     13.01913715	    -11.76338476	    -17.40825601	    -12.57726435	     15.87909769	     10.12590087	      0.00000000	    -22.54408048	      4.37133297	      9.09473241	    -30.32629249	     29.92441744	     13.73426448	      0.00000000	    -34.40433714	     -0.84786938	    -13.26506869
      3.49000000	     11.25334200	      8.35989436	     15.45346836	     -1.52296398	      0.73170088	     -0.23605326	     13.27941805	    -11.15204171	    -16.26401307	    -13.86567545	     15.37362677	      9.13229311	      0.00000000	    -21.91613621	      3.96680403	      8.86609984	    -32.49385623	     28.67826331	     13.68488170	      0.00000000	    -34.17592691	     -0.54666730	    -12.96347133
      3.49500000	     11.27678516	      7.95391105	     15.35278288	     -1.51498172	      0.73149212	     -0.23555216	     13.55101568	    -10.49389661	    -15.10202572	    -15.21378733	     14.92076605	      8.06153848	      0.00000000	    -21.19315645	      3.55430580	      8.63085988	    -34.76085444	     27.18966767	     13.55423152	      0.00000000	    -33.95066585	     -0.23418809	    -12.63927444
      3.50000000	     11.31321448	      7.49657762	     15.23296933	     -1.50702951	      0.73133520	     -0.23506567	     13.81417331	     -9.77348836	    -14.01790423	    -16.59792725	     14.48495961	      7.02972258	      0.00000000	    -20.39335490	      3.11650016	      8.36389570	    -37.11396949	     25.51956906	     13.22206175	      0.00000000	    -33.73467087	      0.14111398	    -12.31064937
      3.50500000	     11.31384385	      7.04757600	     15.12200659	     -1.49909913	      0.73122239	     -0.23451663	     14.07287797	     -9.03755894	    -12.89990302	    -17.94648654	     14.18705023	      5.89596539	      0.00000000	    -19.48327824	      2.70237027	      8.15044650	    -39.52392088	     23.57564319	     12.90365524	      0.00000000	    -33.49684605	      0.48487899	    -11.97037694
      3.51000000	     11.32245102	      6.55750115	     15.00850671	     -1.49121724	      0.73116674	     -0.23398556	     14.29553341	     -8.25482451	    -11.90053858	    -19.25627531	     13.93226309	      4.86713155	      0.00000000	    -18.50103287	      2.26353201	      7.92904502	    -41.97794622	     21.46454229	     12.40789241	      0.00000000	    -33.26581271	      0.88339000	    -11.65439526
      3.51500000	     11.32933706	      6.04971433	     14.91341794	     -1.48337795	      0.73116481	     -0.23349190	     14.47130017	     -7.45402534	    -11.03352197	    -20.50225522	     13.82071868	      3.89904700	      0.00000000	    -17.45586156	      1.82976023	      7.77805119	    -44.43943487	     19.19991497	     11.73911589	      0.00000000	    -33.03698293	      1.31273428	    -11.33677730
      3.52000000	     11.33882356	      5.52595700	     14.83828598	     -1.47560099	      0.73122110	     -0.23303981	     14.58536670	     -6.64242577	    -10.31647685	    -21.65417658	     13.82974474	      3.04273146	      0.00000000	    -16.35249784	      1.39820923	      7.68118874	    -46.89530691	     16.83970568	     10.92783518	      0.00000000	    -32.81522899	      1.77353734	    -11.03371278
      3.52500000	     11.31478977	      4.99033743	     14.77578860	     -1.46789306	      0.73130612	     -0.23261177	     14.67710783	     -5.82409277	     -9.66899450	    -22.70082403	     13.92575298	      2.26636018	      0.00000000	    -15.16097946	      0.98402763	      7.63973975	    -49.31950054	     14.44068418	     10.05264685	      0.00000000	    -32.56283061	      2.24938586	    -10.77770869
      3.53000000	     11.28994582	      4.44860274	     14.73995866	     -1.46025935	      0.73144749	     -0.23225165	     14.69902630	     -5.01518569	     -9.18287879	    -23.62460427	     14.14879321	      1.61364925	      0.00000000	    -13.92636497	      0.58947469	      7.67618586	    -51.69323466	     12.09244128	      9.07668773	      0.00000000	    -32.31617047	      2.75061190	    -10.53584037
      3.53500000	     11.25470878	      3.90538896	     14.72842441	     -1.45270506	      0.73163347	     -0.23196044	     14.66194957	     -4.22230792	     -8.82897622	    -24.42143097	     14.48295221	      1.07403392	      0.00000000	    -12.64725539	      0.22683030	      7.79422987	    -53.99869994	      9.86834946	      8.04345659	      0.00000000	    -32.06436377	      3.26941071	    -10.31645966
      3.54000000	     11.20699010	      3.36394295	     14.73799972	     -1.44522849	      0.73186682	     -0.23174137	     14.56834501	     -3.45070399	     -8.59646914	    -25.08795484	     14.91004965	      0.65189322	      0.00000000	    -11.33004452	     -0.09776471	      7.98793008	    -56.22258282	      7.84411829	      6.99362661	      0.00000000	    -31.80584226	      3.80123682	    -10.11715262
